<?xml version="1.0" encoding="UTF-8"?>
<svg id="Layer_2" xmlns="http://www.w3.org/2000/svg" version="1.1" viewBox="0 0 443.2 511.8">
  <!-- Generator: Adobe Illustrator 29.0.0, SVG Export Plug-In . SVG Version: 2.1.0 Build 186)  -->
  <defs>
    <style>
      .st0 {
        fill: #2ceaa3;
      }

      .st1 {
        fill: #191f25;
      }
    </style>
  </defs>
  <path class="st1" d="M416.9,143.1v225.5l-195.3,112.8L26.3,368.6v-225.5L221.6,30.4l195.3,112.8ZM276,202.4v-28.6h-108.7v164h0c0,.1,0,.1,0,.1h0s0-.1,0-.1h34.6v-67.8h66.7v-28.6h-66.7v-39.1h74Z"/>
  <path class="st0" d="M443.2,127.9v255.9l-221.6,127.9L0,383.8V127.9L221.6,0l221.6,127.9ZM416.9,368.6v-225.5L221.6,30.4,26.3,143.1v225.5l195.3,112.8,195.3-112.8Z"/>
  <polygon class="st0" points="276 173.8 276 202.4 201.9 202.4 201.9 241.5 268.7 241.5 268.7 270 201.9 270 201.9 337.8 167.3 337.8 167.3 173.8 276 173.8"/>
  <polygon class="st0" points="167.3 337.8 167.3 338 167.3 338 167.2 338 167.2 337.8 167.3 337.8"/>
</svg>